<mxfile host="app.diagrams.net" modified="2023-09-09T04:52:32.381Z" agent="Mozilla/5.0 (Windows NT 10.0; Win64; x64) AppleWebKit/537.36 (KHTML, like Gecko) Chrome/116.0.0.0 Safari/537.36" etag="Bl0cnOJgy3EVoioSG1dB" version="21.7.4" type="device">
  <diagram id="C5RBs43oDa-KdzZeNtuy" name="Page-1">
    <mxGraphModel dx="1434" dy="1150" grid="0" gridSize="10" guides="1" tooltips="1" connect="1" arrows="1" fold="1" page="0" pageScale="1" pageWidth="827" pageHeight="1169" background="#ffffff" math="0" shadow="1">
      <root>
        <mxCell id="WIyWlLk6GJQsqaUBKTNV-0" />
        <mxCell id="WIyWlLk6GJQsqaUBKTNV-1" parent="WIyWlLk6GJQsqaUBKTNV-0" />
        <mxCell id="wnio3G6jHBfv90rcc4Q--0" value="BEGIN" style="ellipse;whiteSpace=wrap;html=1;" parent="WIyWlLk6GJQsqaUBKTNV-1" vertex="1">
          <mxGeometry x="175" y="-20" width="90" height="50" as="geometry" />
        </mxCell>
        <mxCell id="wnio3G6jHBfv90rcc4Q--1" value="" style="rounded=0;html=1;jettySize=auto;orthogonalLoop=1;fontSize=11;endArrow=block;endFill=0;endSize=8;strokeWidth=1;shadow=0;labelBackgroundColor=none;edgeStyle=orthogonalEdgeStyle;exitX=0.5;exitY=1;exitDx=0;exitDy=0;entryX=0.5;entryY=0;entryDx=0;entryDy=0;" parent="WIyWlLk6GJQsqaUBKTNV-1" source="wnio3G6jHBfv90rcc4Q--0" target="wnio3G6jHBfv90rcc4Q--3" edge="1">
          <mxGeometry relative="1" as="geometry">
            <mxPoint x="219.41" y="50" as="sourcePoint" />
            <mxPoint x="220" y="80" as="targetPoint" />
          </mxGeometry>
        </mxCell>
        <mxCell id="Ly7UuTPdKaLL6hClOPxb-1" value="" style="edgeStyle=orthogonalEdgeStyle;rounded=0;orthogonalLoop=1;jettySize=auto;html=1;" parent="WIyWlLk6GJQsqaUBKTNV-1" source="wnio3G6jHBfv90rcc4Q--3" target="Ly7UuTPdKaLL6hClOPxb-0" edge="1">
          <mxGeometry relative="1" as="geometry" />
        </mxCell>
        <mxCell id="wnio3G6jHBfv90rcc4Q--3" value="INPUT score;" style="shape=parallelogram;perimeter=parallelogramPerimeter;whiteSpace=wrap;html=1;fixedSize=1;" parent="WIyWlLk6GJQsqaUBKTNV-1" vertex="1">
          <mxGeometry x="150" y="60" width="140" height="50" as="geometry" />
        </mxCell>
        <mxCell id="35OyvAojwMnE3HWSyXgO-2" value="END" style="ellipse;whiteSpace=wrap;html=1;" parent="WIyWlLk6GJQsqaUBKTNV-1" vertex="1">
          <mxGeometry x="175" y="614" width="90" height="60" as="geometry" />
        </mxCell>
        <mxCell id="Ly7UuTPdKaLL6hClOPxb-5" style="edgeStyle=orthogonalEdgeStyle;rounded=0;orthogonalLoop=1;jettySize=auto;html=1;exitX=1;exitY=0.5;exitDx=0;exitDy=0;entryX=0;entryY=0.5;entryDx=0;entryDy=0;" parent="WIyWlLk6GJQsqaUBKTNV-1" source="Ly7UuTPdKaLL6hClOPxb-0" target="C7sWbeUj2AgxCZQGBX9n-13" edge="1">
          <mxGeometry relative="1" as="geometry">
            <mxPoint x="625" y="205" as="targetPoint" />
          </mxGeometry>
        </mxCell>
        <mxCell id="Ly7UuTPdKaLL6hClOPxb-8" value="True" style="edgeLabel;html=1;align=center;verticalAlign=middle;resizable=0;points=[];" parent="Ly7UuTPdKaLL6hClOPxb-5" vertex="1" connectable="0">
          <mxGeometry x="-0.6244" y="-1" relative="1" as="geometry">
            <mxPoint as="offset" />
          </mxGeometry>
        </mxCell>
        <mxCell id="C7sWbeUj2AgxCZQGBX9n-4" style="edgeStyle=orthogonalEdgeStyle;rounded=0;orthogonalLoop=1;jettySize=auto;html=1;exitX=0.5;exitY=1;exitDx=0;exitDy=0;" edge="1" parent="WIyWlLk6GJQsqaUBKTNV-1" source="Ly7UuTPdKaLL6hClOPxb-0" target="Ly7UuTPdKaLL6hClOPxb-6">
          <mxGeometry relative="1" as="geometry" />
        </mxCell>
        <mxCell id="C7sWbeUj2AgxCZQGBX9n-5" value="False" style="edgeLabel;html=1;align=center;verticalAlign=middle;resizable=0;points=[];" vertex="1" connectable="0" parent="C7sWbeUj2AgxCZQGBX9n-4">
          <mxGeometry x="-0.375" y="-2" relative="1" as="geometry">
            <mxPoint as="offset" />
          </mxGeometry>
        </mxCell>
        <mxCell id="Ly7UuTPdKaLL6hClOPxb-0" value="score&amp;gt;=75" style="rhombus;whiteSpace=wrap;html=1;" parent="WIyWlLk6GJQsqaUBKTNV-1" vertex="1">
          <mxGeometry x="180" y="140" width="80" height="80" as="geometry" />
        </mxCell>
        <mxCell id="C7sWbeUj2AgxCZQGBX9n-8" style="edgeStyle=orthogonalEdgeStyle;rounded=0;orthogonalLoop=1;jettySize=auto;html=1;exitX=0.5;exitY=1;exitDx=0;exitDy=0;entryX=0.5;entryY=0;entryDx=0;entryDy=0;" edge="1" parent="WIyWlLk6GJQsqaUBKTNV-1" source="Ly7UuTPdKaLL6hClOPxb-6" target="C7sWbeUj2AgxCZQGBX9n-7">
          <mxGeometry relative="1" as="geometry" />
        </mxCell>
        <mxCell id="C7sWbeUj2AgxCZQGBX9n-17" value="False" style="edgeLabel;html=1;align=center;verticalAlign=middle;resizable=0;points=[];" vertex="1" connectable="0" parent="C7sWbeUj2AgxCZQGBX9n-8">
          <mxGeometry x="-0.2381" y="-1" relative="1" as="geometry">
            <mxPoint as="offset" />
          </mxGeometry>
        </mxCell>
        <mxCell id="C7sWbeUj2AgxCZQGBX9n-9" style="edgeStyle=orthogonalEdgeStyle;rounded=0;orthogonalLoop=1;jettySize=auto;html=1;exitX=1;exitY=0.5;exitDx=0;exitDy=0;" edge="1" parent="WIyWlLk6GJQsqaUBKTNV-1" source="Ly7UuTPdKaLL6hClOPxb-6" target="Ly7UuTPdKaLL6hClOPxb-18">
          <mxGeometry relative="1" as="geometry" />
        </mxCell>
        <mxCell id="C7sWbeUj2AgxCZQGBX9n-16" value="True" style="edgeLabel;html=1;align=center;verticalAlign=middle;resizable=0;points=[];" vertex="1" connectable="0" parent="C7sWbeUj2AgxCZQGBX9n-9">
          <mxGeometry x="-0.5193" y="-1" relative="1" as="geometry">
            <mxPoint as="offset" />
          </mxGeometry>
        </mxCell>
        <mxCell id="Ly7UuTPdKaLL6hClOPxb-6" value="score&amp;gt;=60" style="rhombus;whiteSpace=wrap;html=1;" parent="WIyWlLk6GJQsqaUBKTNV-1" vertex="1">
          <mxGeometry x="180" y="268" width="80" height="80" as="geometry" />
        </mxCell>
        <mxCell id="C7sWbeUj2AgxCZQGBX9n-21" style="edgeStyle=orthogonalEdgeStyle;rounded=0;orthogonalLoop=1;jettySize=auto;html=1;exitX=0.5;exitY=1;exitDx=0;exitDy=0;" edge="1" parent="WIyWlLk6GJQsqaUBKTNV-1" source="Ly7UuTPdKaLL6hClOPxb-18">
          <mxGeometry relative="1" as="geometry">
            <mxPoint x="219" y="617" as="targetPoint" />
            <Array as="points">
              <mxPoint x="553" y="596" />
              <mxPoint x="220" y="596" />
            </Array>
          </mxGeometry>
        </mxCell>
        <mxCell id="Ly7UuTPdKaLL6hClOPxb-18" value="DISPLAY &quot;Grade B&quot;" style="rounded=0;whiteSpace=wrap;html=1;" parent="WIyWlLk6GJQsqaUBKTNV-1" vertex="1">
          <mxGeometry x="493" y="292" width="120" height="32" as="geometry" />
        </mxCell>
        <mxCell id="C7sWbeUj2AgxCZQGBX9n-2" style="edgeStyle=orthogonalEdgeStyle;rounded=0;orthogonalLoop=1;jettySize=auto;html=1;exitX=0.5;exitY=1;exitDx=0;exitDy=0;entryX=0.5;entryY=0;entryDx=0;entryDy=0;" edge="1" parent="WIyWlLk6GJQsqaUBKTNV-1" source="C7sWbeUj2AgxCZQGBX9n-1" target="35OyvAojwMnE3HWSyXgO-2">
          <mxGeometry relative="1" as="geometry" />
        </mxCell>
        <mxCell id="C7sWbeUj2AgxCZQGBX9n-1" value="DISPLAY &quot;Grade D&quot;" style="rounded=0;whiteSpace=wrap;html=1;" vertex="1" parent="WIyWlLk6GJQsqaUBKTNV-1">
          <mxGeometry x="160" y="490" width="120" height="60" as="geometry" />
        </mxCell>
        <mxCell id="C7sWbeUj2AgxCZQGBX9n-14" style="edgeStyle=orthogonalEdgeStyle;rounded=0;orthogonalLoop=1;jettySize=auto;html=1;exitX=1;exitY=0.5;exitDx=0;exitDy=0;entryX=0;entryY=0.5;entryDx=0;entryDy=0;" edge="1" parent="WIyWlLk6GJQsqaUBKTNV-1" source="C7sWbeUj2AgxCZQGBX9n-7" target="C7sWbeUj2AgxCZQGBX9n-12">
          <mxGeometry relative="1" as="geometry" />
        </mxCell>
        <mxCell id="C7sWbeUj2AgxCZQGBX9n-18" value="True" style="edgeLabel;html=1;align=center;verticalAlign=middle;resizable=0;points=[];" vertex="1" connectable="0" parent="C7sWbeUj2AgxCZQGBX9n-14">
          <mxGeometry x="-0.7" y="4" relative="1" as="geometry">
            <mxPoint as="offset" />
          </mxGeometry>
        </mxCell>
        <mxCell id="C7sWbeUj2AgxCZQGBX9n-15" style="edgeStyle=orthogonalEdgeStyle;rounded=0;orthogonalLoop=1;jettySize=auto;html=1;exitX=0.5;exitY=1;exitDx=0;exitDy=0;" edge="1" parent="WIyWlLk6GJQsqaUBKTNV-1" source="C7sWbeUj2AgxCZQGBX9n-7" target="C7sWbeUj2AgxCZQGBX9n-1">
          <mxGeometry relative="1" as="geometry" />
        </mxCell>
        <mxCell id="C7sWbeUj2AgxCZQGBX9n-19" value="False" style="edgeLabel;html=1;align=center;verticalAlign=middle;resizable=0;points=[];" vertex="1" connectable="0" parent="C7sWbeUj2AgxCZQGBX9n-15">
          <mxGeometry x="-0.1707" y="1" relative="1" as="geometry">
            <mxPoint as="offset" />
          </mxGeometry>
        </mxCell>
        <mxCell id="C7sWbeUj2AgxCZQGBX9n-7" value="score&amp;gt;=45" style="rhombus;whiteSpace=wrap;html=1;" vertex="1" parent="WIyWlLk6GJQsqaUBKTNV-1">
          <mxGeometry x="180" y="369" width="80" height="80" as="geometry" />
        </mxCell>
        <mxCell id="C7sWbeUj2AgxCZQGBX9n-22" style="edgeStyle=orthogonalEdgeStyle;rounded=0;orthogonalLoop=1;jettySize=auto;html=1;exitX=0.5;exitY=1;exitDx=0;exitDy=0;entryX=0.5;entryY=0;entryDx=0;entryDy=0;" edge="1" parent="WIyWlLk6GJQsqaUBKTNV-1" source="C7sWbeUj2AgxCZQGBX9n-12" target="35OyvAojwMnE3HWSyXgO-2">
          <mxGeometry relative="1" as="geometry">
            <Array as="points">
              <mxPoint x="480" y="596" />
              <mxPoint x="220" y="596" />
            </Array>
          </mxGeometry>
        </mxCell>
        <mxCell id="C7sWbeUj2AgxCZQGBX9n-12" value="DISPLAY &quot;Grade C&quot;" style="rounded=0;whiteSpace=wrap;html=1;" vertex="1" parent="WIyWlLk6GJQsqaUBKTNV-1">
          <mxGeometry x="420" y="393" width="120" height="32" as="geometry" />
        </mxCell>
        <mxCell id="C7sWbeUj2AgxCZQGBX9n-20" style="edgeStyle=orthogonalEdgeStyle;rounded=0;orthogonalLoop=1;jettySize=auto;html=1;exitX=0.5;exitY=1;exitDx=0;exitDy=0;entryX=0.5;entryY=0;entryDx=0;entryDy=0;" edge="1" parent="WIyWlLk6GJQsqaUBKTNV-1" source="C7sWbeUj2AgxCZQGBX9n-13" target="35OyvAojwMnE3HWSyXgO-2">
          <mxGeometry relative="1" as="geometry">
            <Array as="points">
              <mxPoint x="638" y="596" />
              <mxPoint x="220" y="596" />
            </Array>
          </mxGeometry>
        </mxCell>
        <mxCell id="C7sWbeUj2AgxCZQGBX9n-13" value="DISPLAY &quot;Grade B&quot;" style="rounded=0;whiteSpace=wrap;html=1;" vertex="1" parent="WIyWlLk6GJQsqaUBKTNV-1">
          <mxGeometry x="578" y="164" width="120" height="32" as="geometry" />
        </mxCell>
      </root>
    </mxGraphModel>
  </diagram>
</mxfile>
